<?xml version="1.0" encoding="utf-8"?>
<svg version="1.0" xmlns="http://www.w3.org/2000/svg" width="512.000000pt" height="512.000000pt" viewBox="0 0 512.000000 512.000000" preserveAspectRatio="xMidYMid meet">
  <path d="M 244.44 1.711 C 303.845 1.711 343.977 35.257 371.219 60.094 C 378.513 66.759 384.628 73.141 389.768 79.319 C 401.605 76.489 426.646 73.707 448.339 87.572 C 477.373 106.105 485.123 127.562 485.123 158.388 C 485.123 188.539 475.188 215.797 450.053 251.024 C 452.191 261.431 453.542 272.984 453.542 285.78 C 453.542 345.09 412.656 393.035 378.12 407.843 C 352.009 419.035 338.978 422.965 324.657 427.304 C 321.718 428.2 318.715 429.096 315.54 430.086 C 307.083 432.727 300.088 435.871 293.312 438.921 C 279.463 445.161 266.605 450.946 244.44 450.946 C 222.275 450.946 209.417 445.161 195.584 438.921 C 188.808 435.871 181.797 432.727 173.34 430.086 C 170.165 429.096 167.162 428.2 164.223 427.304 C 149.902 422.965 136.871 419.035 110.76 407.843 C 76.224 393.035 35.338 345.09 35.338 285.78 C 35.338 272.984 36.69 261.431 38.827 251.024 C 13.692 215.797 3.757 188.539 3.757 158.388 C 3.757 127.562 11.507 106.105 40.541 87.572 C 62.234 73.707 87.275 76.489 99.112 79.319 C 104.253 73.141 113.7 65.093 120.994 58.427 C 148.236 33.59 185.036 1.711 244.44 1.711 Z" style="filter: url(&quot;#point-light-filter-0&quot;);"/>
</svg>